<?xml version="1.0" standalone="no"?>
<!DOCTYPE svg PUBLIC "-//W3C//DTD SVG 20010904//EN"
 "http://www.w3.org/TR/2001/REC-SVG-20010904/DTD/svg10.dtd">
<svg version="1.0" xmlns="http://www.w3.org/2000/svg"
 width="1132.000000pt" height="242.000000pt" viewBox="0 0 1132.000000 242.000000"
 preserveAspectRatio="xMidYMid meet">

<g transform="translate(0.000000,242.000000) scale(0.100000,-0.100000)"
fill="#000000" stroke="none">
<path d="M0 1210 l0 -1210 5660 0 5660 0 0 1210 0 1210 -5660 0 -5660 0 0
-1210z m3960 801 c90 -47 106 -148 44 -269 -55 -107 -33 -128 53 -51 47 43 78
54 130 46 76 -13 146 -90 159 -175 10 -66 -11 -139 -74 -265 -45 -89 -71 -126
-130 -187 l-74 -75 43 -82 c24 -46 45 -83 47 -83 2 0 20 14 41 30 48 39 93 52
143 41 116 -26 159 -129 104 -248 -46 -98 -154 -226 -220 -260 -64 -33 -184 4
-280 87 -22 20 -70 52 -104 70 -35 19 -91 53 -124 76 l-61 42 -57 -39 c-61
-41 -119 -66 -185 -77 -39 -7 -40 -8 -45 -57 -12 -108 -65 -155 -174 -155 -83
0 -127 21 -189 90 -77 86 -116 254 -82 354 l17 48 -31 32 c-37 38 -51 74 -51
130 0 58 23 121 65 174 l35 45 -25 29 c-47 56 -30 123 48 195 83 77 188 113
329 113 l84 0 32 99 c56 169 102 215 221 217 l74 1 35 43 c38 45 99 79 142 80
14 0 41 -8 60 -19z m1722 -227 c75 -24 132 -74 170 -151 29 -60 33 -77 33
-148 -1 -86 -23 -146 -81 -214 -115 -137 -387 -127 -493 19 -51 71 -64 118
-59 217 3 73 9 97 33 141 72 133 232 187 397 136z m609 5 c55 -14 115 -63 149
-121 47 -84 45 -88 -53 -88 -79 0 -84 1 -97 25 -35 66 -191 75 -179 10 5 -21
34 -34 156 -66 150 -39 211 -99 200 -196 -11 -100 -100 -169 -234 -180 -164
-14 -281 63 -327 215 -7 22 -6 22 79 22 81 0 86 -1 95 -24 16 -43 57 -66 117
-66 63 0 93 13 93 40 0 26 -34 42 -155 74 -116 31 -165 60 -190 112 -22 47
-16 120 14 163 58 81 195 114 332 80z m1118 -8 c20 -11 43 -27 50 -35 20 -24
31 -19 31 14 l0 30 85 0 85 0 -2 -302 -3 -303 -82 -3 -83 -3 0 36 0 36 -35
-26 c-37 -29 -112 -55 -155 -55 -95 0 -209 78 -249 170 -40 93 -38 227 6 312
25 50 77 101 128 124 65 31 168 33 224 5z m-2368 -17 c66 -31 115 -78 146
-142 55 -113 30 -267 -58 -346 -82 -74 -103 -80 -311 -84 l-188 -4 0 302 0
302 183 -4 c160 -3 188 -6 228 -24z m1997 -46 l-3 -73 -97 -3 -98 -3 0 -229 0
-230 -85 0 -85 0 0 230 0 229 -97 3 -98 3 -3 73 -3 72 286 0 286 0 -3 -72z
m1117 -530 c-34 -110 -216 -132 -276 -34 -34 55 -33 56 132 56 l150 0 -6 -22z
m-3112 -98 c100 -50 160 -139 173 -257 l7 -63 -237 0 c-165 0 -236 -3 -236
-11 0 -6 8 -27 17 -46 24 -51 66 -73 138 -73 62 0 96 14 123 52 11 15 28 18
98 18 52 0 84 -4 84 -10 0 -44 -85 -142 -154 -178 -45 -23 -63 -26 -151 -27
-120 0 -170 19 -239 90 -64 65 -89 138 -84 236 8 138 80 238 201 281 74 26
195 21 260 -12z m1204 15 c94 -28 172 -108 189 -193 l7 -32 -82 0 c-77 0 -82
1 -93 25 -27 60 -130 84 -205 48 -69 -32 -94 -152 -52 -240 26 -53 67 -77 131
-75 58 1 101 23 125 62 18 31 18 31 98 28 91 -3 92 -5 52 -86 -25 -50 -69 -92
-130 -124 -63 -33 -193 -37 -268 -9 -75 28 -132 80 -166 149 -24 49 -28 69
-28 143 0 79 3 92 35 154 28 54 46 76 90 106 30 21 71 42 90 47 54 15 151 14
207 -3z m-582 -6 c22 -6 56 -28 77 -49 34 -33 38 -43 38 -86 0 -54 -25 -105
-61 -124 -21 -12 -20 -12 15 -34 51 -31 76 -72 76 -126 0 -62 -28 -109 -85
-145 l-48 -30 -214 -3 -213 -4 0 306 0 306 188 0 c105 0 204 -5 227 -11z m977
-110 l3 -120 104 120 103 121 94 0 c52 0 94 -3 94 -6 0 -3 -56 -68 -125 -144
-69 -76 -125 -141 -125 -144 0 -3 61 -72 135 -153 74 -81 135 -151 135 -155 0
-5 -44 -8 -97 -8 l-98 0 -110 124 -110 123 -3 -123 -3 -124 -84 0 -85 0 0 305
0 305 85 0 84 0 3 -121z m600 -53 l3 -174 125 174 124 174 83 0 83 0 0 -305 0
-305 -80 0 -80 0 0 176 c0 99 -4 173 -9 170 -5 -3 -64 -82 -131 -176 l-123
-171 -81 3 -81 3 -3 290 c-1 159 0 295 3 302 3 9 29 13 84 13 l81 0 2 -174z
m640 2 l3 -172 123 172 124 172 84 0 84 0 0 -305 0 -306 -82 3 -83 3 -5 170
-5 170 -124 -172 -124 -173 -84 0 -83 0 0 305 0 305 85 0 85 0 2 -172z"/>
<path d="M3857 1920 c-14 -11 -47 -49 -73 -85 l-47 -64 -29 24 c-28 24 -45 29
-78 26 -48 -5 -82 -49 -114 -148 -9 -28 -24 -54 -33 -57 -11 -5 -13 -10 -6
-17 7 -7 6 -25 -5 -59 l-15 -48 -102 6 c-152 7 -246 -20 -320 -93 -46 -46 -46
-65 0 -65 36 0 105 -23 105 -36 0 -3 -31 -35 -69 -71 -108 -100 -144 -173
-116 -239 17 -42 54 -53 93 -28 15 10 40 17 55 15 43 -4 57 14 57 75 0 48 3
55 33 78 19 14 47 29 64 32 26 5 34 1 61 -34 18 -22 32 -46 32 -53 0 -21 -58
-139 -86 -176 -21 -28 -33 -33 -119 -48 -53 -10 -105 -25 -116 -34 -44 -36
-32 -168 24 -262 51 -87 144 -123 201 -78 31 25 33 56 6 101 -23 40 -17 76 14
82 11 3 48 7 81 10 76 7 137 28 198 69 62 42 67 61 27 102 -31 32 -33 55 -7
55 7 0 35 -23 62 -51 60 -61 147 -124 241 -175 38 -21 98 -61 134 -89 108 -85
149 -94 211 -44 46 36 121 137 149 202 23 52 15 86 -25 107 -33 17 -65 7 -121
-40 -40 -33 -56 -40 -84 -38 -33 3 -36 7 -112 148 -43 80 -78 148 -78 151 0 4
22 21 50 39 80 51 145 131 201 247 56 113 69 175 49 223 -28 67 -109 95 -132
45 -8 -17 -19 -25 -37 -25 -57 0 -71 -39 -39 -105 21 -42 21 -48 8 -73 -15
-26 -94 -92 -110 -92 -4 0 -15 12 -25 26 -15 24 -15 27 0 44 15 17 14 19 -26
31 -41 13 -44 17 -63 77 -17 52 -18 67 -8 83 15 24 8 39 -19 39 -30 0 -24 38
7 50 46 18 85 52 115 98 63 99 15 204 -64 142z m-180 -187 c5 -13 -18 -27 -59
-37 -33 -7 -37 8 -11 36 18 20 64 21 70 1z m71 -90 c3 -23 1 -23 -97 -23 -101
0 -116 5 -105 34 5 14 21 16 103 14 91 -3 96 -4 99 -25z m456 -54 c15 -17 26
-43 26 -59 0 -38 -38 -140 -52 -140 -31 0 -79 45 -102 97 -15 30 -26 59 -26
64 0 17 29 9 44 -12 16 -24 36 -18 36 11 0 31 19 70 34 70 8 0 26 -14 40 -31z
m-514 -19 c19 -37 24 -40 60 -40 35 0 42 -4 51 -26 13 -35 7 -39 -30 -20 -38
20 -55 20 -71 1 -7 -8 -25 -15 -40 -15 -15 0 -33 7 -40 15 -18 21 -37 19 -88
-11 l-44 -26 7 33 c4 19 12 45 17 59 8 22 10 23 19 8 6 -12 22 -18 42 -18 40
0 50 7 71 48 9 17 19 32 21 32 3 0 14 -18 25 -40z m-257 -116 c30 -6 37 -24
10 -24 -10 0 -25 -4 -33 -10 -12 -7 -11 -12 5 -31 28 -31 77 -49 134 -49 34 0
51 -4 55 -15 7 -20 51 -19 72 3 13 13 34 17 88 17 39 0 83 4 97 8 24 8 26 5
42 -43 21 -65 21 -110 2 -157 -41 -98 -108 -143 -221 -151 -143 -9 -242 41
-375 192 -86 96 -150 148 -205 166 -41 14 -42 23 -5 49 75 54 201 71 334 45z
m181 1 c27 -20 75 -19 98 2 18 17 22 16 84 -17 36 -19 68 -38 70 -43 8 -11
-43 -27 -89 -27 -23 0 -59 9 -80 20 -37 20 -37 20 -69 0 -36 -22 -116 -27
-149 -10 -21 12 -26 30 -6 30 6 0 32 14 57 30 51 34 57 35 84 15z m-414 -190
c14 -17 15 -16 -46 -63 -38 -29 -43 -30 -55 -16 -12 15 -8 22 31 55 51 44 53
45 70 24z m-101 -119 c29 -30 32 -38 29 -86 -3 -57 -22 -77 -32 -35 -9 34 -20
32 -46 -10 -23 -37 -54 -46 -64 -19 -10 25 -7 74 6 97 16 32 59 87 67 87 4 0
22 -15 40 -34z m91 -325 c0 -6 -4 -13 -10 -16 -5 -3 -10 -24 -10 -46 0 -30 6
-46 25 -63 14 -13 25 -26 25 -30 0 -3 -18 -6 -41 -6 -49 0 -49 -20 0 -34 39
-11 35 -29 -8 -36 -51 -8 -41 -25 19 -30 42 -4 56 -9 58 -23 5 -27 -17 -47
-53 -47 -81 0 -154 103 -163 229 -4 63 -3 70 17 81 41 21 141 36 141 21z
m1141 -1 c10 -6 19 -21 19 -33 0 -33 -68 -143 -123 -200 -45 -46 -51 -49 -85
-43 -20 3 -55 18 -77 34 -54 37 -60 85 -17 133 23 26 33 31 55 25 21 -5 27
-12 27 -34 0 -36 14 -56 34 -49 13 5 14 11 5 31 -13 28 -6 56 13 56 7 0 18
-10 23 -22 6 -13 19 -24 29 -26 15 -3 17 0 11 14 -20 49 -16 68 21 97 43 31
39 30 65 17z"/>
<path d="M3574 1279 c-10 -16 23 -39 55 -39 52 0 69 34 18 36 -12 0 -32 4 -44
8 -13 4 -24 2 -29 -5z"/>
<path d="M5493 1639 c-51 -25 -76 -73 -77 -149 0 -105 55 -170 144 -170 102 0
166 74 157 182 -6 74 -35 121 -87 142 -54 21 -87 20 -137 -5z"/>
<path d="M7270 1643 c-54 -28 -83 -92 -77 -172 3 -41 12 -73 24 -90 45 -61
143 -79 203 -38 51 33 72 77 72 147 0 99 -47 156 -137 166 -37 4 -59 0 -85
-13z"/>
<path d="M4800 1490 l0 -163 74 6 c40 3 87 12 104 21 43 22 76 94 69 153 -9
86 -63 129 -175 139 l-72 7 0 -163z"/>
<path d="M4865 970 c-42 -9 -71 -27 -89 -52 -32 -45 -25 -48 124 -48 90 0 140
4 140 10 0 20 -33 61 -59 74 -36 18 -81 24 -116 16z"/>
<path d="M5420 930 l0 -50 78 0 c84 0 122 16 122 50 0 34 -38 50 -122 50 l-78
0 0 -50z"/>
<path d="M5420 689 l0 -61 89 4 c97 3 131 20 131 64 0 40 -35 54 -132 54 l-88
0 0 -61z"/>
</g>
</svg>
